# xmcd CD database file
#
# Track frame offsets:
#	16934
#	27288
#	36900
#	62522
#	79808
#	83522
#	105053
#	111404
#	123758
#
# Disc length: 1893 seconds
#
# Revision: 1
# Processed by: cddbd v1.5.2PL0 Copyright (c) Steve Scherf et al.
# Submitted via: CDex 1.70beta2
#
DISCID=66068409
DTITLE=דויד פרץ - הייקו בלוז
DYEAR=2007
DGENRE=Blues
TTITLE0=הייקו בלוז
TTITLE1=עצוב כמו מים
TTITLE2=יפה כמו שקט
TTITLE3=ניסיתי ונכשלתי
TTITLE4=ללא שם
TTITLE5=מקום בתוכי
TTITLE6=שמחת עצוב
TTITLE7=עוד שיר אחד, וזהו
TTITLE8=היום זה עכשיו
EXTD=YEAR: 2007
EXTT0=
EXTT1=
EXTT2=
EXTT3=
EXTT4=
EXTT5=
EXTT6=
EXTT7=
EXTT8=
PLAYORDER=
